<?xml version="1.0" encoding="utf-8"?>
<!-- Generator: Adobe Illustrator 26.5.2, SVG Export Plug-In . SVG Version: 6.00 Build 0)  -->
<svg version="1.1" id="Capa_1" xmlns="http://www.w3.org/2000/svg" xmlns:xlink="http://www.w3.org/1999/xlink" x="0px" y="0px"
	 width="96px" height="96px" viewBox="0 0 96 96" enable-background="new 0 0 96 96" xml:space="preserve">
<g>
	<g>
		<g>
			<g>
				<g>
					<g>
						<g>
							<g>
								<g>
									
										<ellipse transform="matrix(0.3616 -0.9323 0.9323 0.3616 -30.5708 51.7256)" fill="#E9A32C" cx="22.486" cy="48.186" rx="11.365" ry="11.947"/>
								</g>
							</g>
						</g>
						<g>
							<g>
								<g>
									<path fill="#6E5336" d="M22.553,38.068c-0.387-0.014-0.797-0.163-0.795-0.412c0.001-0.062,0.029-0.122,0.082-0.173
										c0.131-0.125,0.408-0.196,0.724-0.184c0.387,0.014,0.797,0.163,0.795,0.412c-0.001,0.062-0.029,0.122-0.082,0.173
										c-0.042,0.04-0.098,0.074-0.166,0.102C22.965,38.046,22.768,38.076,22.553,38.068z M21.947,37.595
										c-0.023,0.022-0.034,0.043-0.034,0.063l0,0c-0.001,0.095,0.25,0.242,0.646,0.256c0.309,0.011,0.53-0.063,0.612-0.142
										c0.023-0.022,0.034-0.043,0.034-0.063c0.001-0.095-0.25-0.241-0.646-0.256c-0.211-0.008-0.381,0.024-0.494,0.071
										C22.013,37.546,21.973,37.571,21.947,37.595z"/>
								</g>
							</g>
						</g>
					</g>
					<g>
						<g>
							<g>
								<path fill="#5D9E9B" d="M22.407,34.273c7.155-5.525,13.813-0.058,13.813-0.058S29.61,40.175,22.407,34.273z"/>
							</g>
						</g>
					</g>
				</g>
				<g>
					<g>
						<polygon fill="#385C57" points="22.434,37.687 22.352,31.164 22.622,31.161 22.704,37.683 						"/>
					</g>
				</g>
			</g>
			<g>
				<g>
					<g>
						<g>
							<g>
								<g>
									
										<ellipse transform="matrix(0.3616 -0.9323 0.9323 0.3616 -13.4302 73.9499)" fill="#E9A32C" cx="47.285" cy="46.782" rx="11.365" ry="11.947"/>
								</g>
							</g>
						</g>
						<g>
							<g>
								<g>
									<path fill="#6E5336" d="M47.352,36.663c-0.387-0.014-0.797-0.163-0.795-0.412c0.001-0.062,0.029-0.122,0.082-0.173
										c0.131-0.125,0.408-0.196,0.724-0.184c0.387,0.014,0.797,0.163,0.795,0.412c-0.001,0.062-0.029,0.122-0.082,0.173
										c-0.042,0.04-0.098,0.074-0.166,0.102C47.764,36.641,47.567,36.671,47.352,36.663z M46.746,36.19
										c-0.023,0.022-0.034,0.043-0.034,0.063l0,0c-0.001,0.095,0.25,0.242,0.646,0.256c0.309,0.011,0.53-0.063,0.612-0.142
										c0.023-0.022,0.034-0.043,0.034-0.063c0.001-0.095-0.25-0.241-0.646-0.256c-0.211-0.008-0.381,0.024-0.494,0.071
										C46.812,36.141,46.772,36.165,46.746,36.19z"/>
								</g>
							</g>
						</g>
					</g>
					<g>
						<g>
							<g>
								<path fill="#5D9E9B" d="M47.206,32.868c7.155-5.525,13.813-0.058,13.813-0.058S54.409,38.77,47.206,32.868z"/>
							</g>
						</g>
					</g>
				</g>
				<g>
					<g>
						<polygon fill="#385C57" points="47.233,36.282 47.151,29.76 47.421,29.756 47.503,36.278 						"/>
					</g>
				</g>
			</g>
			<g>
				<g>
					<g>
						<g>
							<g>
								<g>
									
										<ellipse transform="matrix(0.3616 -0.9323 0.9323 0.3616 2.6758 97.4725)" fill="#E9A32C" cx="72.514" cy="46.782" rx="11.365" ry="11.947"/>
								</g>
							</g>
						</g>
						<g>
							<g>
								<g>
									<path fill="#6E5336" d="M72.581,36.663c-0.387-0.014-0.797-0.163-0.795-0.412c0.001-0.062,0.029-0.122,0.082-0.173
										c0.131-0.125,0.408-0.196,0.724-0.184c0.387,0.014,0.797,0.163,0.795,0.412c-0.001,0.062-0.029,0.122-0.082,0.173
										c-0.042,0.04-0.098,0.074-0.166,0.102C72.994,36.641,72.796,36.671,72.581,36.663z M71.975,36.19
										c-0.023,0.022-0.034,0.043-0.034,0.063l0,0c-0.001,0.095,0.25,0.242,0.646,0.256c0.309,0.011,0.53-0.063,0.612-0.142
										c0.023-0.022,0.034-0.043,0.034-0.063c0.001-0.095-0.25-0.241-0.646-0.256c-0.211-0.008-0.381,0.024-0.494,0.071
										C72.041,36.141,72.001,36.165,71.975,36.19z"/>
								</g>
							</g>
						</g>
					</g>
					<g>
						<g>
							<g>
								<path fill="#5D9E9B" d="M72.435,32.868c7.155-5.525,13.813-0.058,13.813-0.058S79.638,38.77,72.435,32.868z"/>
							</g>
						</g>
					</g>
				</g>
				<g>
					<g>
						<polygon fill="#385C57" points="72.464,36.282 72.381,29.76 72.65,29.756 72.733,36.278 						"/>
					</g>
				</g>
			</g>
			<g>
				<g>
					<polygon fill="#AF754E" points="65.187,85.856 6.982,85.856 6.982,48.047 65.187,43.499 					"/>
				</g>
			</g>
			<g>
				<g>
					<rect x="64.667" y="43.499" fill="#98633E" width="22.279" height="42.357"/>
				</g>
			</g>
			<g>
				<g>
					<circle fill="#E9A32C" cx="70.415" cy="50.789" r="2.742"/>
				</g>
			</g>
			<g>
				<g>
					<circle fill="#E9A32C" cx="81.516" cy="50.789" r="2.742"/>
				</g>
			</g>
		</g>
		<g>
			<g>
				<polyline fill="#98633E" points="64.667,43.499 56.931,59.493 2.437,61.058 6.982,48.111 				"/>
			</g>
		</g>
		<g>
			<g>
				<polyline fill="#AF754E" points="86.946,43.499 93.563,58.963 86.946,58.963 				"/>
			</g>
		</g>
	</g>
	<g>
		<g>
			
				<rect x="64.349" y="13.567" transform="matrix(0.9948 -0.1018 0.1018 0.9948 -1.6677 6.683)" fill="#4C8785" width="0.589" height="12.228"/>
		</g>
	</g>
	<g>
		<g>
			
				<rect x="66.742" y="19.385" transform="matrix(0.1423 -0.9898 0.9898 0.1423 43.0503 89.0419)" fill="#4C8785" width="12.326" height="0.59"/>
		</g>
	</g>
	<g>
		<g>
			
				<rect x="75.642" y="21.812" transform="matrix(0.4696 -0.8829 0.8829 0.4696 23.9528 84.0847)" fill="#4C8785" width="12.631" height="0.591"/>
		</g>
	</g>
</g>
</svg>
