<?xml version="1.0" encoding="utf-8"?>
<!-- Generator: Adobe Illustrator 26.5.2, SVG Export Plug-In . SVG Version: 6.00 Build 0)  -->
<svg version="1.1" id="Capa_1" xmlns="http://www.w3.org/2000/svg" xmlns:xlink="http://www.w3.org/1999/xlink" x="0px" y="0px"
	 width="96px" height="96px" viewBox="0 0 96 96" enable-background="new 0 0 96 96" xml:space="preserve">
<g>
	<g>
		<g>
			<g>
				<path fill="#F7A41E" d="M37.53,19.561c0,0-5.785,7.535-3.179,13.15c0,0,2.055,6.243,6.558,5.858c0,0,14.729,3.396,21.544-6.447
					c0,0,9.133-14.451-9.748-19.971C39.567,8.311,37.53,19.561,37.53,19.561z"/>
			</g>
		</g>
		<g>
			<g>
				<path fill="#FFFFFF" d="M58.828,46.146c0,0,11.072,2.665,13.184,18.432l-12.408,0.671"/>
			</g>
		</g>
		<g>
			<g>
				<path fill="#5D9E9B" d="M36.948,20.088l26.146-2.376c0,0-1.416-9.715-15.304-7.32c-8.765,1.426-10.526,5.259-10.842,9.698"/>
			</g>
		</g>
		<g>
			<g>
				<path fill="#4C8785" d="M72.8,14.477c0.113-0.996-0.482-1.87-3.971-1.814c-3.729,0.077-9.218-0.044-16.44,5.978l0,0
					l16.726-1.237C69.115,17.404,72.047,17.383,72.8,14.477z"/>
			</g>
		</g>
		<g>
			<g>
				<g>
					<path fill="#FFD1AE" d="M42.084,32.603C41.6,32.464,41.6,32.464,41.6,32.464c-1.73,0.029-3.156-1.29-3.183-2.945
						c-0.027-1.655,1.353-3.02,3.083-3.049c0,0,1.39-0.206,2.742-0.107c10.604,0.77,13.84-6.593,13.713-7.128
						c0,0,1.24,7.364,5.414,5.719l0,0c0,0,1.96,13.097-5.407,15.61c-1.538,0.525-3.372,0.602-4.099,5.546
						c0,0-7.255,3.877-13.542-2.359L42.084,32.603"/>
				</g>
			</g>
			<g>
				<g>
					<path fill="#FFD1AE" d="M41.576,27.623c0,0-2.088,0.446-1.706,2.433"/>
				</g>
			</g>
		</g>
		<g>
			<g>
				<path fill="#3B706D" d="M51.085,29.352c-0.159,0-0.296-0.12-0.313-0.282c-0.09-0.847,0.075-1.51,0.491-1.971
					c0.473-0.524,1.085-0.582,1.329-0.582c0.001,0,0.002,0,0.002,0c0.607,0.001,1.1,0.187,1.462,0.551
					c0.603,0.605,0.605,1.483,0.605,1.52c-0.001,0.174-0.142,0.313-0.315,0.313l0,0c-0.174,0-0.314-0.141-0.315-0.314
					c0-0.147-0.045-1.438-1.437-1.438c-0.001,0-0.001,0-0.002,0c-0.125,0-0.549,0.027-0.861,0.373
					c-0.29,0.323-0.402,0.821-0.332,1.482c0.019,0.173-0.107,0.328-0.28,0.347C51.106,29.351,51.095,29.352,51.085,29.352z"/>
			</g>
		</g>
		<g>
			<g>
				<path fill="#3B706D" d="M59.552,29.112c-0.159,0-0.296-0.12-0.313-0.282c-0.09-0.846,0.075-1.508,0.49-1.969
					c0.474-0.527,1.089-0.584,1.332-0.584c0.607,0.001,1.1,0.187,1.462,0.551c0.603,0.605,0.606,1.482,0.606,1.52
					c-0.001,0.174-0.142,0.313-0.315,0.313s-0.314-0.141-0.315-0.314c0-0.147-0.046-1.438-1.438-1.438
					c-0.123,0-0.551,0.026-0.863,0.374c-0.29,0.323-0.402,0.821-0.332,1.481c0.019,0.173-0.107,0.328-0.28,0.347
					C59.574,29.111,59.563,29.112,59.552,29.112z"/>
			</g>
		</g>
		<g>
			<g>
				<circle fill="#F7A41E" cx="32.11" cy="35.922" r="3.351"/>
			</g>
		</g>
		<g>
			<g>
				
					<rect x="23.331" y="70.914" transform="matrix(0.1548 -0.9879 0.9879 0.1548 -46.1492 88.5146)" fill="#4C8785" width="10.653" height="0.631"/>
			</g>
		</g>
		<g>
			<g>
				<path fill="#FFFFFF" d="M28.051,75.759c0,0,5.649,0.776,6.304-8.708s1.007-22.832,1.007-22.832s-15.527-1.367-21.357,21.749
					l15.142,0.628L28.051,75.759z"/>
			</g>
		</g>
		<g>
			<g>
				<path fill="#FFFFFF" d="M38.094,43.747l0.912,14.689h16.935l-0.268-13.521l-1.592-0.003c0,0,0.072,1.936-5.953,1.936
					c-4.866,0-7.744-3.494-7.744-3.494L38.094,43.747z"/>
			</g>
		</g>
		<g>
			<g>
				<path fill="#5D9E9B" d="M65.174,86.069c-1.769-9.357-6.407-40.386-6.407-40.386c-1.989-0.863-3.468-0.87-3.468-0.87l0.642,12.05
					H39.006V43.59c-2.339,0.247-4.049,0.342-4.049,0.342l0,0l0.058,13.449c0,0,0.262,15.669-6.964,15.013
					c0,0-4.794,8.651-4.794,13.647"/>
			</g>
		</g>
		<g>
			<g>
				<path fill="#C0DAD8" d="M48.854,75.152c-0.681,0-3.257-0.15-5.312-2.288c-2.125-2.211-2.963-5.776-2.491-10.597l0.017-0.176
					h15.749l0.027,0.164c0.045,0.275,1.073,6.8-2.058,10.486c-1.356,1.597-3.296,2.406-5.765,2.406
					C49.007,75.149,48.95,75.152,48.854,75.152z M41.423,62.482c-0.422,4.607,0.384,8.007,2.396,10.105
					c2.213,2.306,5.156,2.171,5.191,2.17c2.359,0,4.198-0.764,5.477-2.269c2.746-3.232,2.132-8.965,1.993-10.007L41.423,62.482
					L41.423,62.482z"/>
			</g>
		</g>
		<g>
			<g>
				<path fill="#3B706D" d="M56.974,31.721c-0.182,0-0.382-0.019-0.6-0.055c-0.172-0.028-0.288-0.19-0.259-0.362
					c0.027-0.172,0.181-0.285,0.362-0.259c0.531,0.089,0.923,0.048,1.078-0.111c0.109-0.111,0.082-0.273,0.081-0.28L57.11,25.83
					c-0.019-0.173,0.106-0.329,0.279-0.348c0.195-0.016,0.329,0.107,0.348,0.279l0.522,4.796c0.005,0.017,0.09,0.458-0.242,0.808
					C57.792,31.602,57.442,31.721,56.974,31.721z"/>
			</g>
		</g>
		<g>
			<g>
				<path fill="#3B706D" d="M55.999,34.277c-0.17,0-0.354-0.016-0.551-0.053c-0.402-0.072-1.192-0.473-1.293-1.466
					c-0.018-0.174,0.108-0.328,0.281-0.346c0.169-0.02,0.328,0.108,0.346,0.281c0.076,0.75,0.71,0.896,0.782,0.911
					c1.213,0.216,1.547-0.5,1.561-0.53c0.068-0.157,0.254-0.233,0.412-0.165c0.159,0.067,0.235,0.248,0.17,0.407
					C57.557,33.682,57.023,34.277,55.999,34.277z"/>
			</g>
		</g>
		<g>
			<g>
				<polygon fill="#FFD1AE" points="16.644,66.078 29.482,65.969 27.344,86.041 13.554,86.041 				"/>
			</g>
		</g>
		<g>
			<g>
				<polygon fill="#FFD1AE" points="61.564,65.253 70.337,64.719 75.565,86.041 65.174,86.069 				"/>
			</g>
		</g>
	</g>
	<g>
		<g>
			<g>
				<path fill="#FFD366" d="M75.014,33.13c0,0,3.99-3.242,4.488-7.73c0,0,0.247,5.414,4.239,7.73c0,0-3.687,2.147-4.061,7.134
					C79.68,40.264,79.502,35.374,75.014,33.13z"/>
			</g>
		</g>
		<g>
			<g>
				<path fill="#FFD366" d="M4.844,51.158c0,0,3.525-2.864,3.966-6.83c0,0,0.218,4.784,3.745,6.83c0,0-3.258,1.897-3.588,6.303
					C8.967,57.46,8.81,53.141,4.844,51.158z"/>
			</g>
		</g>
	</g>
</g>
</svg>
