<?xml version="1.0" encoding="utf-8"?>
<!-- Generator: Adobe Illustrator 26.5.2, SVG Export Plug-In . SVG Version: 6.00 Build 0)  -->
<svg version="1.1" id="Capa_1" xmlns="http://www.w3.org/2000/svg" xmlns:xlink="http://www.w3.org/1999/xlink" x="0px" y="0px"
	 width="96px" height="96px" viewBox="0 0 96 96" enable-background="new 0 0 96 96" xml:space="preserve">
<g>
	<g>
		<path fill="#4C8785" d="M19.53,55.489l-0.309-0.164c4.237-7.931,19.717-14.059,19.873-14.119l0.127,0.324
			C39.068,41.59,23.706,47.672,19.53,55.489z"/>
	</g>
</g>
<g>
	<g>
		<g>
			<g>
				<g>
					<path fill="#FFFFFF" d="M33.751,28.209c4.143-3.853-11.661,4.61-16.55,8.279c-2.592,1.945-5.094,4.081-6.949,6.738
						c-1.855,2.657-4.259,6.763-3.942,9.988c0.318,3.225,1.889,5.284,4.905,6.47s7.601,0.7,9.033-2.207
						C20.248,57.478,17.595,43.235,33.751,28.209z"/>
				</g>
			</g>
			<g>
				<g>
					<path fill="#FFFFFF" d="M34.588,27.491c-8.087-0.124-21.453,0.528-28.513,4.473c-1.223,0.683-2.438,1.443-3.324,2.528
						c-1.47,1.8-2.781,3.94-1.824,7.676c0.943,3.683,5.122,3.92,7.442,4.054"/>
				</g>
			</g>
			<g>
				<g>
					<g>
						<path fill="#FFD366" d="M53.194,27.999c0,0-4.589-6.609-12.85-4.039c-6.343,1.974-20.156,16.287-20.324,29.891
							c-0.098,7.914,6.061,14.688,13.959,15.197c3.786,0.244,7.82-1.019,10.402-6.147c5.213-10.356,0.553-13.122,5.142-20.157
							S55.596,31.728,53.194,27.999z"/>
					</g>
				</g>
				<g>
					<g>
						<path fill="#4C8785" d="M44.171,23.423l-0.578-0.113c0.025-0.131,0.651-3.242,2.392-6.459
							c2.326-4.302,5.542-6.671,9.298-6.852l0.028,0.59C46.725,11.001,44.195,23.299,44.171,23.423z"/>
					</g>
				</g>
				<g>
					<g>
						<path fill="#4C8785" d="M52.363,26.969l-0.574-0.133c0.028-0.122,2.949-12.178,13.018-12.662l0.027,0.59
							C55.206,15.226,52.391,26.852,52.363,26.969z"/>
					</g>
				</g>
				<g>
					<g>
						<path fill="#4C8785" d="M43.353,29.812c-0.247,0-0.456-0.05-0.602-0.116c-0.404-0.212-0.646-0.512-0.735-0.9
							c-0.213-0.931,0.585-2.022,0.619-2.068c0.096-0.131,0.28-0.159,0.412-0.062c0.131,0.097,0.159,0.281,0.062,0.412
							c-0.188,0.255-0.646,1.035-0.519,1.587c0.05,0.216,0.187,0.38,0.418,0.502c0.021,0.009,0.954,0.384,1.865-0.908
							c0.094-0.134,0.277-0.164,0.411-0.071c0.133,0.094,0.165,0.278,0.071,0.411C44.686,29.547,43.919,29.812,43.353,29.812z"/>
					</g>
				</g>
				<g>
					<g>
						<path fill="#4C8785" d="M48.438,32.896c-0.247,0-0.457-0.051-0.603-0.117c-0.404-0.211-0.646-0.512-0.735-0.899
							c-0.213-0.93,0.585-2.022,0.619-2.068c0.096-0.132,0.28-0.159,0.412-0.062c0.131,0.097,0.159,0.281,0.062,0.412
							c-0.188,0.255-0.646,1.035-0.519,1.587c0.05,0.215,0.187,0.379,0.418,0.501c0.02,0.007,0.954,0.385,1.865-0.907
							c0.094-0.134,0.277-0.165,0.411-0.071c0.133,0.094,0.165,0.278,0.071,0.411C49.771,32.631,49.004,32.896,48.438,32.896z"/>
					</g>
				</g>
				<g>
					<g>
						<path fill="#C0DAD8" d="M50.706,40.248c0,0,4.482,0.962,8.154,5.974"/>
					</g>
					<g>
						<path fill="#4C8785" d="M58.61,46.405c-3.553-4.848-7.925-5.844-7.969-5.854l0.131-0.607c0.188,0.04,4.64,1.045,8.34,6.094
							L58.61,46.405z"/>
					</g>
				</g>
				<g>
					<g>
						<path fill="#EAA42C" d="M93.121,18.077c0,0-2.68-1.088-3.875,2.686c1.195-3.774-1.585-4.414-1.585-4.414
							s-3.044-1.474-4.306,2.759c-1.319,4.421,3.807,8.305,3.807,8.305s6.427-0.227,7.893-4.601
							C96.458,18.623,93.121,18.077,93.121,18.077z"/>
					</g>
				</g>
				<g>
					<g>
						<path fill="#3B706D" d="M20.324,50.502c0,0,14.405,9.556,25.881,8.621c0,0-0.786,4.353-3.555,6.432
							c0,0-14.217-0.383-22.402-8.078C20.248,57.478,19.671,53.605,20.324,50.502z"/>
					</g>
				</g>
				<g>
					<g>
						<path fill="#3B706D" d="M22.122,44.326c0,0,11.044,9.56,24.692,11.154l0.386-4.598c0,0-10.011-2.576-22.268-12.079
							C24.933,38.802,22.89,42.258,22.122,44.326z"/>
					</g>
				</g>
				<g>
					<g>
						<path fill="#3B706D" d="M28.739,33.447c9.387,9.626,19.475,11.721,19.475,11.721l2.491-3.81c0,0-15.155-8.247-18.22-11.982
							l-1.29,1.18c-0.605,0.554-1.158,1.162-1.651,1.818L28.739,33.447z"/>
					</g>
				</g>
				<g>
					<g>
						<circle fill="#F7A41E" cx="62.878" cy="59.433" r="26.391"/>
					</g>
				</g>
				<g>
					<g>
						<path fill="#4C8785" d="M51.556,49.187c-6.608,0-11.552-1.544-14.71-4.597c-3.338-3.227-3.376-6.921-3.376-7.076h0.562
							c0,0.035,0.046,3.627,3.215,6.683c3.282,3.164,8.606,4.646,15.809,4.401l0.02,0.562C52.56,49.178,52.053,49.187,51.556,49.187
							z"/>
					</g>
				</g>
				<g>
					<g>
						<path fill="#4C8785" d="M45.302,32.674c-0.413,0-0.756-0.119-1.021-0.355c-0.525-0.467-0.523-1.213-0.523-1.244
							c0.002-0.164,0.153-0.272,0.297-0.291c0.162,0.001,0.293,0.134,0.293,0.296c0,0.005,0.003,0.516,0.327,0.801
							c0.197,0.173,0.486,0.237,0.865,0.187c0.162-0.014,0.31,0.094,0.331,0.255c0.021,0.162-0.094,0.31-0.255,0.331
							C45.507,32.667,45.403,32.674,45.302,32.674z"/>
					</g>
				</g>
				<g>
					<g>
						<path fill="#5D9E9B" d="M94.923,50.177h0.003l-0.003-0.003c-0.03-0.169-3.87-21.251-23.634-19.784
							C73.298,50.106,94.75,50.176,94.923,50.177L94.923,50.177C94.923,50.178,94.923,50.177,94.923,50.177z"/>
					</g>
				</g>
				<g>
					<g>
						
							<rect x="64.84" y="31.186" transform="matrix(0.3863 -0.9224 0.9224 0.3863 14.2437 84.3407)" fill="#4C8785" width="11.324" height="0.561"/>
					</g>
				</g>
			</g>
		</g>
	</g>
</g>
<g>
	<g>
		<g>
			<path fill="#4C8785" d="M8.614,46.385l-0.492-0.326c9.054-13.651,26.795-18.93,26.971-18.981l-0.702,0.613
				C34.216,27.741,17.546,32.916,8.614,46.385z"/>
		</g>
	</g>
</g>
</svg>
